<svg xmlns="http://www.w3.org/2000/svg" width="25" height="15" viewBox="0 0 25 15" version="1.1"><path d="M 11.131 1.342 C 10.519 2.080, 10.313 2.980, 10.675 3.342 C 11.326 3.993, 9.432 4.414, 7.500 4.047 C 6.950 3.943, 7.063 4.429, 7.750 5.129 C 9.722 7.134, 9.206 8.496, 7.171 6.655 C 6.165 5.745, 4.928 5.007, 4.421 5.015 C 3.915 5.024, 4.175 5.467, 5 6 C 6.207 6.780, 6.049 6.972, 4.191 6.985 C 2.698 6.995, 2.134 6.592, 2.595 5.845 C 3.054 5.103, 2.868 4.964, 2.073 5.455 C 1.175 6.010, 1.596 7.013, 3.605 9.110 C 5.128 10.699, 6.965 12, 7.687 12 C 8.409 12, 9 12.675, 9 13.500 C 9 15.571, 15.844 15.571, 16.638 13.500 C 16.955 12.675, 17.757 12, 18.420 12 C 19.083 12, 20.872 10.699, 22.395 9.110 C 24.404 7.013, 24.825 6.010, 23.927 5.455 C 23.132 4.964, 22.946 5.103, 23.405 5.845 C 23.866 6.592, 23.302 6.995, 21.809 6.985 C 19.951 6.972, 19.793 6.780, 21 6 C 21.825 5.467, 22.085 5.024, 21.579 5.015 C 21.072 5.007, 19.835 5.745, 18.829 6.655 C 16.887 8.412, 16.229 7.171, 18.107 5.293 C 18.916 4.484, 18.720 4.229, 17.381 4.343 C 16.373 4.429, 15.530 4.050, 15.509 3.500 C 15.452 2.053, 14.017 0, 13.063 0 C 12.613 0, 11.744 0.604, 11.131 1.342 M 11.543 1.931 C 10.803 3.128, 12.684 4.313, 14.016 3.490 C 15.135 2.799, 14.400 1, 13 1 C 12.515 1, 11.859 1.419, 11.543 1.931 M 2.269 3.693 C 3.242 3.947, 4.592 3.930, 5.269 3.656 C 5.946 3.382, 5.150 3.175, 3.500 3.195 C 1.850 3.215, 1.296 3.439, 2.269 3.693 M 21.269 3.693 C 22.242 3.947, 23.592 3.930, 24.269 3.656 C 24.946 3.382, 24.150 3.175, 22.500 3.195 C 20.850 3.215, 20.296 3.439, 21.269 3.693 M 10 9.500 C 10 13.964, 10.100 14.121, 12.750 13.816 C 15.239 13.530, 15.500 13.120, 15.500 9.500 C 15.500 5.880, 15.239 5.470, 12.750 5.184 C 10.100 4.879, 10 5.036, 10 9.500 M 12 7.500 C 12 8.325, 12.450 9, 13 9 C 13.550 9, 14 8.325, 14 7.500 C 14 6.675, 13.550 6, 13 6 C 12.450 6, 12 6.675, 12 7.500 M 4.966 8.042 C 3.750 8.811, 3.809 8.972, 5.309 8.985 C 6.304 8.993, 6.840 9.450, 6.500 10 C 6.160 10.550, 6.584 11, 7.441 11 C 9.332 11, 9.465 9.631, 7.716 8.180 C 6.903 7.504, 5.896 7.454, 4.966 8.042 M 18.122 8.278 C 16.544 9.856, 16.728 11, 18.559 11 C 19.416 11, 19.861 10.584, 19.547 10.076 C 19.233 9.567, 19.769 8.992, 20.738 8.796 C 22.310 8.479, 22.325 8.372, 20.872 7.799 C 19.976 7.445, 18.739 7.661, 18.122 8.278 M 12 11.500 C 12 12.325, 12.450 13, 13 13 C 13.550 13, 14 12.325, 14 11.500 C 14 10.675, 13.550 10, 13 10 C 12.450 10, 12 10.675, 12 11.500" stroke="none" fill="#040404" fill-rule="evenodd"/><path d="M 11.543 1.931 C 10.803 3.128, 12.684 4.313, 14.016 3.490 C 15.135 2.799, 14.400 1, 13 1 C 12.515 1, 11.859 1.419, 11.543 1.931 M 3.691 3.822 C 0.324 4.208, 0.607 6.373, 4.078 6.793 C 6.003 7.027, 6.192 6.876, 5 6.059 C 4.175 5.493, 3.915 5.024, 4.421 5.015 C 4.928 5.007, 6.165 5.745, 7.171 6.655 C 9.216 8.505, 9.606 7.324, 7.718 5 C 7.012 4.130, 5.320 3.635, 3.691 3.822 M 18.052 5.288 C 16.570 7.662, 17.266 8.589, 18.980 6.524 C 19.676 5.686, 20.752 5.007, 21.372 5.015 C 21.993 5.024, 21.825 5.493, 21 6.059 C 19.808 6.876, 19.997 7.027, 21.922 6.793 C 25.426 6.369, 25.593 4.314, 22.165 3.811 C 20.059 3.502, 18.910 3.915, 18.052 5.288 M 2 5.500 C 2 5.775, 2.225 6, 2.500 6 C 2.775 6, 3 5.775, 3 5.500 C 3 5.225, 2.775 5, 2.500 5 C 2.225 5, 2 5.225, 2 5.500 M 10 9.500 C 10 13.964, 10.100 14.121, 12.750 13.816 C 15.239 13.530, 15.500 13.120, 15.500 9.500 C 15.500 5.880, 15.239 5.470, 12.750 5.184 C 10.100 4.879, 10 5.036, 10 9.500 M 23 5.500 C 23 5.775, 23.225 6, 23.500 6 C 23.775 6, 24 5.775, 24 5.500 C 24 5.225, 23.775 5, 23.500 5 C 23.225 5, 23 5.225, 23 5.500 M 12 7.500 C 12 8.325, 12.450 9, 13 9 C 13.550 9, 14 8.325, 14 7.500 C 14 6.675, 13.550 6, 13 6 C 12.450 6, 12 6.675, 12 7.500 M 4.966 8.042 C 3.750 8.811, 3.809 8.972, 5.309 8.985 C 6.304 8.993, 6.840 9.450, 6.500 10 C 6.160 10.550, 6.584 11, 7.441 11 C 9.332 11, 9.465 9.631, 7.716 8.180 C 6.903 7.504, 5.896 7.454, 4.966 8.042 M 18.122 8.278 C 16.544 9.856, 16.728 11, 18.559 11 C 19.416 11, 19.861 10.584, 19.547 10.076 C 19.233 9.567, 19.769 8.992, 20.738 8.796 C 22.310 8.479, 22.325 8.372, 20.872 7.799 C 19.976 7.445, 18.739 7.661, 18.122 8.278 M 12 11.500 C 12 12.325, 12.450 13, 13 13 C 13.550 13, 14 12.325, 14 11.500 C 14 10.675, 13.550 10, 13 10 C 12.450 10, 12 10.675, 12 11.500" stroke="none" fill="#fc1f16" fill-rule="evenodd"/></svg>