<svg xmlns="http://www.w3.org/2000/svg" width="25" height="15" viewBox="0 0 25 15" version="1.1"><path d="M 11.131 1.342 C 10.519 2.080, 10.313 2.980, 10.675 3.342 C 11.326 3.993, 9.432 4.414, 7.500 4.047 C 6.950 3.943, 7.063 4.429, 7.750 5.129 C 9.722 7.134, 9.206 8.496, 7.171 6.655 C 6.165 5.745, 4.928 5.007, 4.421 5.015 C 3.915 5.024, 4.175 5.467, 5 6 C 6.207 6.780, 6.049 6.972, 4.191 6.985 C 2.698 6.995, 2.134 6.592, 2.595 5.845 C 3.054 5.103, 2.868 4.964, 2.073 5.455 C 1.175 6.010, 1.596 7.013, 3.605 9.110 C 5.128 10.699, 6.965 12, 7.687 12 C 8.409 12, 9 12.675, 9 13.500 C 9 14.583, 10.111 15, 13 15 C 15.889 15, 17 14.583, 17 13.500 C 17 12.675, 17.591 12, 18.313 12 C 19.035 12, 20.872 10.699, 22.395 9.110 C 24.404 7.013, 24.825 6.010, 23.927 5.455 C 23.132 4.964, 22.946 5.103, 23.405 5.845 C 23.866 6.592, 23.302 6.995, 21.809 6.985 C 19.951 6.972, 19.793 6.780, 21 6 C 21.825 5.467, 21.993 5.024, 21.372 5.015 C 20.752 5.007, 19.627 5.761, 18.872 6.692 C 18.118 7.623, 17.971 8.102, 18.548 7.758 C 19.124 7.414, 20.249 7.545, 21.048 8.051 C 22.242 8.806, 22.179 8.972, 20.691 8.985 C 19.696 8.993, 19.160 9.450, 19.500 10 C 19.840 10.550, 19.444 11, 18.621 11 C 16.935 11, 16.759 7.284, 18.346 5.194 C 18.894 4.473, 18.926 3.966, 18.419 4.062 C 16.558 4.416, 14.686 3.981, 15.325 3.342 C 16.043 2.624, 14.218 0, 13 0 C 12.585 0, 11.744 0.604, 11.131 1.342 M 11.543 1.931 C 10.803 3.128, 12.684 4.313, 14.016 3.490 C 15.135 2.799, 14.400 1, 13 1 C 12.515 1, 11.859 1.419, 11.543 1.931 M 2.269 3.693 C 3.242 3.947, 4.592 3.930, 5.269 3.656 C 5.946 3.382, 5.150 3.175, 3.500 3.195 C 1.850 3.215, 1.296 3.439, 2.269 3.693 M 21.269 3.693 C 22.242 3.947, 23.592 3.930, 24.269 3.656 C 24.946 3.382, 24.150 3.175, 22.500 3.195 C 20.850 3.215, 20.296 3.439, 21.269 3.693 M 10 9.500 C 10 11.975, 10.450 14, 11 14 C 11.550 14, 12 13.325, 12 12.500 C 12 11.675, 12.675 11, 13.500 11 C 14.325 11, 15 10.550, 15 10 C 15 9.450, 14.325 9, 13.500 9 C 12.675 9, 12 8.550, 12 8 C 12 7.450, 12.900 7, 14 7 C 15.100 7, 16 6.550, 16 6 C 16 5.450, 14.650 5, 13 5 C 10.111 5, 10 5.167, 10 9.500 M 4.966 8.042 C 3.750 8.811, 3.809 8.972, 5.309 8.985 C 6.304 8.993, 6.840 9.450, 6.500 10 C 6.160 10.550, 6.584 11, 7.441 11 C 9.332 11, 9.465 9.631, 7.716 8.180 C 6.903 7.504, 5.896 7.454, 4.966 8.042" stroke="none" fill="#040404" fill-rule="evenodd"/><path d="M 11.543 1.931 C 10.803 3.128, 12.684 4.313, 14.016 3.490 C 15.135 2.799, 14.400 1, 13 1 C 12.515 1, 11.859 1.419, 11.543 1.931 M 3.691 3.822 C 0.324 4.208, 0.607 6.373, 4.078 6.793 C 6.003 7.027, 6.192 6.876, 5 6.059 C 4.175 5.493, 3.915 5.024, 4.421 5.015 C 4.928 5.007, 6.165 5.745, 7.171 6.655 C 9.216 8.505, 9.606 7.324, 7.718 5 C 7.012 4.130, 5.320 3.635, 3.691 3.822 M 18.366 4.929 C 16.958 8.041, 17.081 11, 18.619 11 C 19.443 11, 19.840 10.550, 19.500 10 C 19.160 9.450, 19.696 8.993, 20.691 8.985 C 22.179 8.972, 22.242 8.806, 21.048 8.051 C 20.249 7.545, 19.124 7.414, 18.548 7.758 C 17.971 8.102, 18.118 7.623, 18.872 6.692 C 19.627 5.761, 20.752 5.007, 21.372 5.015 C 21.993 5.024, 21.825 5.493, 21 6.059 C 19.808 6.876, 19.997 7.027, 21.922 6.793 C 25.466 6.364, 25.576 4.312, 22.082 3.799 C 20.003 3.494, 18.858 3.842, 18.366 4.929 M 2 5.500 C 2 5.775, 2.225 6, 2.500 6 C 2.775 6, 3 5.775, 3 5.500 C 3 5.225, 2.775 5, 2.500 5 C 2.225 5, 2 5.225, 2 5.500 M 10 9.500 C 10 11.975, 10.450 14, 11 14 C 11.550 14, 12 13.325, 12 12.500 C 12 11.675, 12.675 11, 13.500 11 C 14.325 11, 15 10.550, 15 10 C 15 9.450, 14.325 9, 13.500 9 C 12.675 9, 12 8.550, 12 8 C 12 7.450, 12.900 7, 14 7 C 15.100 7, 16 6.550, 16 6 C 16 5.450, 14.650 5, 13 5 C 10.111 5, 10 5.167, 10 9.500 M 23 5.500 C 23 5.775, 23.225 6, 23.500 6 C 23.775 6, 24 5.775, 24 5.500 C 24 5.225, 23.775 5, 23.500 5 C 23.225 5, 23 5.225, 23 5.500 M 4.966 8.042 C 3.750 8.811, 3.809 8.972, 5.309 8.985 C 6.304 8.993, 6.840 9.450, 6.500 10 C 6.160 10.550, 6.584 11, 7.441 11 C 9.332 11, 9.465 9.631, 7.716 8.180 C 6.903 7.504, 5.896 7.454, 4.966 8.042" stroke="none" fill="#fc2219" fill-rule="evenodd"/></svg>