<svg xmlns="http://www.w3.org/2000/svg" width="24" height="15" viewBox="0 0 24 15" version="1.1"><path d="M 10.131 1.342 C 9.519 2.080, 9.313 2.980, 9.675 3.342 C 10.326 3.993, 8.432 4.414, 6.500 4.047 C 5.950 3.943, 6.063 4.429, 6.750 5.129 C 8.722 7.134, 8.206 8.496, 6.171 6.655 C 5.165 5.745, 3.928 5.007, 3.421 5.015 C 2.915 5.024, 3.175 5.467, 4 6 C 5.207 6.780, 5.049 6.972, 3.191 6.985 C 1.698 6.995, 1.134 6.592, 1.595 5.845 C 2.054 5.103, 1.868 4.964, 1.073 5.455 C 0.175 6.010, 0.596 7.013, 2.605 9.110 C 4.128 10.699, 5.965 12, 6.687 12 C 7.409 12, 8 12.675, 8 13.500 C 8 14.583, 9.111 15, 12 15 C 14.889 15, 16 14.583, 16 13.500 C 16 12.675, 16.587 12, 17.304 12 C 18.021 12, 20.062 10.500, 21.838 8.667 C 23.947 6.491, 24.551 5.333, 23.579 5.333 C 22.759 5.333, 22.320 5.708, 22.603 6.167 C 22.886 6.625, 22.079 6.993, 20.809 6.985 C 18.951 6.972, 18.793 6.780, 20 6 C 20.825 5.467, 21.085 5.024, 20.579 5.015 C 20.072 5.007, 18.835 5.745, 17.829 6.655 C 15.794 8.496, 15.278 7.134, 17.250 5.129 C 17.938 4.429, 18.050 3.943, 17.500 4.047 C 15.568 4.414, 13.674 3.993, 14.325 3.342 C 15.043 2.624, 13.218 0, 12 0 C 11.585 0, 10.744 0.604, 10.131 1.342 M 10.543 1.931 C 9.803 3.128, 11.684 4.313, 13.016 3.490 C 14.135 2.799, 13.400 1, 12 1 C 11.515 1, 10.859 1.419, 10.543 1.931 M 1.269 3.693 C 2.242 3.947, 3.592 3.930, 4.269 3.656 C 4.946 3.382, 4.150 3.175, 2.500 3.195 C 0.850 3.215, 0.296 3.439, 1.269 3.693 M 20.269 3.693 C 21.242 3.947, 22.592 3.930, 23.269 3.656 C 23.946 3.382, 23.150 3.175, 21.500 3.195 C 19.850 3.215, 19.296 3.439, 20.269 3.693 M 9.118 9.628 C 9.203 13.118, 9.416 13.791, 9.868 12 C 10.713 8.659, 13 8.294, 13 11.500 C 13 12.875, 13.450 14, 14 14 C 14.550 14, 15 11.975, 15 9.500 C 15 5.239, 13.899 3.737, 12.470 6.049 C 12.027 6.765, 11.376 6.727, 10.411 5.926 C 9.227 4.944, 9.019 5.539, 9.118 9.628 M 0 6.500 C 0 6.775, 0.225 7, 0.500 7 C 0.775 7, 1 6.775, 1 6.500 C 1 6.225, 0.775 6, 0.500 6 C 0.225 6, 0 6.225, 0 6.500 M 3.966 8.042 C 2.750 8.811, 2.809 8.972, 4.309 8.985 C 5.304 8.993, 5.840 9.450, 5.500 10 C 5.160 10.550, 5.584 11, 6.441 11 C 8.332 11, 8.465 9.631, 6.716 8.180 C 5.903 7.504, 4.896 7.454, 3.966 8.042 M 17.122 8.278 C 15.544 9.856, 15.728 11, 17.559 11 C 18.416 11, 18.861 10.584, 18.547 10.076 C 18.233 9.567, 18.769 8.992, 19.738 8.796 C 21.310 8.479, 21.325 8.372, 19.872 7.799 C 18.976 7.445, 17.739 7.661, 17.122 8.278" stroke="none" fill="#040404" fill-rule="evenodd"/><path d="M 10.543 1.931 C 9.803 3.128, 11.684 4.313, 13.016 3.490 C 14.135 2.799, 13.400 1, 12 1 C 11.515 1, 10.859 1.419, 10.543 1.931 M 2.691 3.822 C -0.676 4.208, -0.393 6.373, 3.078 6.793 C 5.003 7.027, 5.192 6.876, 4 6.059 C 3.175 5.493, 2.915 5.024, 3.421 5.015 C 3.928 5.007, 5.165 5.745, 6.171 6.655 C 8.216 8.505, 8.606 7.324, 6.718 5 C 6.012 4.130, 4.320 3.635, 2.691 3.822 M 17.052 5.288 C 15.570 7.662, 16.266 8.589, 17.980 6.524 C 18.676 5.686, 19.752 5.007, 20.372 5.015 C 20.993 5.024, 20.825 5.493, 20 6.059 C 18.808 6.876, 18.997 7.027, 20.922 6.793 C 24.426 6.369, 24.593 4.314, 21.165 3.811 C 19.059 3.502, 17.910 3.915, 17.052 5.288 M 1 5.500 C 1 5.775, 1.225 6, 1.500 6 C 1.775 6, 2 5.775, 2 5.500 C 2 5.225, 1.775 5, 1.500 5 C 1.225 5, 1 5.225, 1 5.500 M 9.118 9.628 C 9.203 13.118, 9.416 13.791, 9.868 12 C 10.713 8.659, 13 8.294, 13 11.500 C 13 12.875, 13.450 14, 14 14 C 14.550 14, 15 11.975, 15 9.500 C 15 5.239, 13.899 3.737, 12.470 6.049 C 12.027 6.765, 11.376 6.727, 10.411 5.926 C 9.227 4.944, 9.019 5.539, 9.118 9.628 M 22 5.500 C 22 5.775, 22.225 6, 22.500 6 C 22.775 6, 23 5.775, 23 5.500 C 23 5.225, 22.775 5, 22.500 5 C 22.225 5, 22 5.225, 22 5.500 M 3.966 8.042 C 2.750 8.811, 2.809 8.972, 4.309 8.985 C 5.304 8.993, 5.840 9.450, 5.500 10 C 5.160 10.550, 5.584 11, 6.441 11 C 8.332 11, 8.465 9.631, 6.716 8.180 C 5.903 7.504, 4.896 7.454, 3.966 8.042 M 17.122 8.278 C 15.544 9.856, 15.728 11, 17.559 11 C 18.416 11, 18.861 10.584, 18.547 10.076 C 18.233 9.567, 18.769 8.992, 19.738 8.796 C 21.310 8.479, 21.325 8.372, 19.872 7.799 C 18.976 7.445, 17.739 7.661, 17.122 8.278" stroke="none" fill="#fc1f16" fill-rule="evenodd"/></svg>